<svg xmlns="http://www.w3.org/2000/svg" viewBox="0 0 1200 900" width="1200" height="900"><defs>
<radialGradient id="vig" cx="50%" cy="50%" r="75%"><stop offset="0.6" stop-color="#000" stop-opacity="0"/><stop offset="1" stop-color="#2a1a10" stop-opacity="0.35"/></radialGradient>
<filter id="grain"><feTurbulence type="fractalNoise" baseFrequency="0.9" numOctaves="2" stitchTiles="stitch"/><feColorMatrix values="0 0 0 0 0.5 0 0 0 0 0.4 0 0 0 0 0.3 0 0 0 0.18 0"/></filter></defs>
<defs><linearGradient id="sky" x1="0" y1="0" x2="0" y2="1"><stop offset="0" stop-color="#7fa6d6"/><stop offset="1" stop-color="#dbe8f5"/></linearGradient></defs>
<rect width="1200" height="900" fill="url(#sky)"/>
<path d="M0 720 L300 270 L504 450 L744 162 L1200 648 V900 H0z" fill="#6a82a8"/>
<path d="M744 162 L660 270 l30 10 20 -16 26 20 22 -8z M300 270 L240 342 l24 8 16 -10 18 8z" fill="#fff"/>
<path d="M0 774 Q360 630 720 738 T1200 702 V900 H0z" fill="#e9f0f8"/>
<g transform="translate(360 810) scale(1.1)" fill="#2f3d5c">
<circle cx="-16" cy="-86" r="9"/><path d="M-26 -74h20l4 40h-7l-2 34h-6l-2-34h-4l-2 34h-6l-2-34h-7z"/>
<circle cx="16" cy="-84" r="8.5"/><path d="M6 -73h20l10 44h-12l-1 29h-6l-2-29h-4l-2 29h-6l-1-29h-8z"/>
<path d="M-6 -56 q6 6 12 0" stroke="#2f3d5c" stroke-width="4" fill="none"/>
</g>
<circle cx="710" cy="541" r="4.3" fill="#fff" opacity="0.8"/><circle cx="33" cy="21" r="4.4" fill="#fff" opacity="0.8"/><circle cx="785" cy="833" r="3.3" fill="#fff" opacity="0.8"/><circle cx="431" cy="105" r="2.8" fill="#fff" opacity="0.8"/><circle cx="347" cy="892" r="3.0" fill="#fff" opacity="0.8"/><circle cx="222" cy="8" r="5.0" fill="#fff" opacity="0.8"/><circle cx="1113" cy="545" r="2.2" fill="#fff" opacity="0.8"/><circle cx="248" cy="38" r="4.6" fill="#fff" opacity="0.8"/><circle cx="37" cy="559" r="4.9" fill="#fff" opacity="0.8"/><circle cx="763" cy="310" r="2.1" fill="#fff" opacity="0.8"/><circle cx="1004" cy="702" r="2.2" fill="#fff" opacity="0.8"/><circle cx="733" cy="848" r="3.4" fill="#fff" opacity="0.8"/><circle cx="927" cy="5" r="2.7" fill="#fff" opacity="0.8"/><circle cx="1035" cy="874" r="2.9" fill="#fff" opacity="0.8"/><circle cx="158" cy="228" r="2.9" fill="#fff" opacity="0.8"/><circle cx="1103" cy="895" r="3.3" fill="#fff" opacity="0.8"/><circle cx="205" cy="33" r="3.5" fill="#fff" opacity="0.8"/><circle cx="451" cy="461" r="2.1" fill="#fff" opacity="0.8"/><circle cx="853" cy="3" r="3.3" fill="#fff" opacity="0.8"/><circle cx="1002" cy="855" r="2.6" fill="#fff" opacity="0.8"/><circle cx="694" cy="776" r="2.8" fill="#fff" opacity="0.8"/><circle cx="395" cy="195" r="4.3" fill="#fff" opacity="0.8"/><circle cx="710" cy="276" r="3.8" fill="#fff" opacity="0.8"/><circle cx="444" cy="690" r="3.1" fill="#fff" opacity="0.8"/><circle cx="801" cy="50" r="2.3" fill="#fff" opacity="0.8"/><circle cx="580" cy="279" r="3.4" fill="#fff" opacity="0.8"/><circle cx="194" cy="678" r="2.7" fill="#fff" opacity="0.8"/><circle cx="1115" cy="718" r="4.2" fill="#fff" opacity="0.8"/><circle cx="1103" cy="109" r="4.4" fill="#fff" opacity="0.8"/><circle cx="896" cy="190" r="3.7" fill="#fff" opacity="0.8"/><rect width="1200" height="900" fill="url(#vig)"/><rect width="1200" height="900" filter="url(#grain)" opacity="0.55"/></svg>
