<svg xmlns="http://www.w3.org/2000/svg" viewBox="0 0 900 1200" width="900" height="1200"><defs>
<radialGradient id="vig" cx="50%" cy="50%" r="75%"><stop offset="0.6" stop-color="#000" stop-opacity="0"/><stop offset="1" stop-color="#2a1a10" stop-opacity="0.35"/></radialGradient>
<filter id="grain"><feTurbulence type="fractalNoise" baseFrequency="0.9" numOctaves="2" stitchTiles="stitch"/><feColorMatrix values="0 0 0 0 0.5 0 0 0 0 0.4 0 0 0 0 0.3 0 0 0 0.18 0"/></filter></defs>
<defs><linearGradient id="sky" x1="0" y1="0" x2="0" y2="1"><stop offset="0" stop-color="#1b2440"/><stop offset="1" stop-color="#3a4a6e"/></linearGradient><radialGradient id="lamp"><stop offset="0" stop-color="#ffe6a8"/><stop offset="1" stop-color="#3a4a6e" stop-opacity="0"/></radialGradient></defs>
<rect width="900" height="1200" fill="url(#sky)"/>
<rect x="102" y="240" width="120" height="720" fill="#2a3150"/><rect x="122" y="300" width="30" height="50" fill="#ffd98a" opacity="0.8"/><rect x="172" y="300" width="30" height="50" fill="#ffd98a" opacity="0.8"/><rect x="122" y="410" width="30" height="50" fill="#ffd98a" opacity="0.8"/><rect x="172" y="410" width="30" height="50" fill="#ffd98a" opacity="0.8"/><rect x="122" y="520" width="30" height="50" fill="#ffd98a" opacity="0.8"/><rect x="172" y="520" width="30" height="50" fill="#ffd98a" opacity="0.8"/><rect x="122" y="630" width="30" height="50" fill="#ffd98a" opacity="0.8"/><rect x="172" y="630" width="30" height="50" fill="#ffd98a" opacity="0.8"/><rect x="678" y="240" width="120" height="720" fill="#2a3150"/><rect x="698" y="300" width="30" height="50" fill="#ffd98a" opacity="0.8"/><rect x="748" y="300" width="30" height="50" fill="#ffd98a" opacity="0.8"/><rect x="698" y="410" width="30" height="50" fill="#ffd98a" opacity="0.8"/><rect x="748" y="410" width="30" height="50" fill="#ffd98a" opacity="0.8"/><rect x="698" y="520" width="30" height="50" fill="#ffd98a" opacity="0.8"/><rect x="748" y="520" width="30" height="50" fill="#ffd98a" opacity="0.8"/><rect x="698" y="630" width="30" height="50" fill="#ffd98a" opacity="0.8"/><rect x="748" y="630" width="30" height="50" fill="#ffd98a" opacity="0.8"/>
<circle cx="450" cy="432" r="216" fill="url(#lamp)" opacity="0.9"/>
<path d="M450 480 V983.9999999999999" stroke="#141a30" stroke-width="10"/><rect x="432" y="396" width="36" height="46" rx="6" fill="#ffe6a8"/>
<path d="M0 960 Q450 912 900 960 V1200 H0z" fill="#e8eef8"/>
<g transform="translate(450 1032)" fill="#141a30">
<circle cx="-60" cy="-150" r="18"/><path d="M-82 -130h44l8 90h-16l-4 40h-24l-4-40h-12z"/>
<circle cx="40" cy="-110" r="17"/><path d="M20 -92h40l10 20-10 12v40h-40v-40l-10-12z"/>
</g>
<path transform="translate(450 720) scale(1.6)" d="M0 12S-14 3-14-5a7 7 0 0 1 14-3 7 7 0 0 1 14 3C14 3 0 12 0 12z" fill="#e8505b"/>
<circle cx="118" cy="261" r="2.8" fill="#fff" opacity="0.82"/><circle cx="120" cy="425" r="3.5" fill="#fff" opacity="0.69"/><circle cx="774" cy="958" r="2.7" fill="#fff" opacity="0.66"/><circle cx="12" cy="77" r="4.7" fill="#fff" opacity="0.63"/><circle cx="194" cy="889" r="3.7" fill="#fff" opacity="0.93"/><circle cx="468" cy="1060" r="4.3" fill="#fff" opacity="0.48"/><circle cx="10" cy="850" r="2.3" fill="#fff" opacity="0.77"/><circle cx="589" cy="509" r="4.9" fill="#fff" opacity="0.94"/><circle cx="500" cy="958" r="4.9" fill="#fff" opacity="0.43"/><circle cx="2" cy="481" r="2.0" fill="#fff" opacity="0.42"/><circle cx="122" cy="753" r="2.9" fill="#fff" opacity="0.72"/><circle cx="427" cy="1019" r="4.2" fill="#fff" opacity="0.62"/><circle cx="664" cy="566" r="2.4" fill="#fff" opacity="0.65"/><circle cx="812" cy="272" r="3.6" fill="#fff" opacity="0.40"/><circle cx="583" cy="361" r="4.9" fill="#fff" opacity="0.90"/><circle cx="582" cy="681" r="4.6" fill="#fff" opacity="0.66"/><circle cx="389" cy="628" r="4.8" fill="#fff" opacity="0.94"/><circle cx="521" cy="164" r="1.7" fill="#fff" opacity="0.69"/><circle cx="320" cy="455" r="3.8" fill="#fff" opacity="0.91"/><circle cx="164" cy="966" r="1.8" fill="#fff" opacity="0.93"/><circle cx="354" cy="173" r="2.0" fill="#fff" opacity="0.84"/><circle cx="765" cy="150" r="2.8" fill="#fff" opacity="0.87"/><circle cx="262" cy="267" r="4.4" fill="#fff" opacity="0.84"/><circle cx="809" cy="1186" r="1.9" fill="#fff" opacity="0.89"/><circle cx="463" cy="483" r="1.8" fill="#fff" opacity="0.90"/><circle cx="246" cy="570" r="2.5" fill="#fff" opacity="0.50"/><circle cx="259" cy="607" r="3.4" fill="#fff" opacity="0.50"/><circle cx="201" cy="738" r="3.3" fill="#fff" opacity="0.81"/><circle cx="294" cy="165" r="2.3" fill="#fff" opacity="0.75"/><circle cx="113" cy="609" r="3.1" fill="#fff" opacity="0.71"/><circle cx="552" cy="851" r="1.6" fill="#fff" opacity="0.48"/><circle cx="436" cy="1083" r="4.9" fill="#fff" opacity="0.51"/><circle cx="298" cy="297" r="2.9" fill="#fff" opacity="0.56"/><circle cx="712" cy="264" r="4.4" fill="#fff" opacity="0.79"/><circle cx="149" cy="955" r="2.3" fill="#fff" opacity="0.51"/><circle cx="595" cy="839" r="2.1" fill="#fff" opacity="0.81"/><circle cx="283" cy="429" r="1.5" fill="#fff" opacity="0.56"/><circle cx="55" cy="926" r="2.5" fill="#fff" opacity="0.81"/><circle cx="886" cy="72" r="3.9" fill="#fff" opacity="0.87"/><circle cx="96" cy="713" r="2.8" fill="#fff" opacity="0.88"/><circle cx="475" cy="842" r="1.8" fill="#fff" opacity="0.87"/><circle cx="202" cy="1075" r="2.4" fill="#fff" opacity="0.59"/><circle cx="294" cy="460" r="3.7" fill="#fff" opacity="0.61"/><circle cx="37" cy="777" r="4.0" fill="#fff" opacity="0.59"/><circle cx="278" cy="74" r="2.4" fill="#fff" opacity="0.51"/><circle cx="883" cy="193" r="4.6" fill="#fff" opacity="0.62"/><circle cx="714" cy="509" r="3.9" fill="#fff" opacity="0.48"/><circle cx="874" cy="765" r="3.9" fill="#fff" opacity="0.52"/><circle cx="895" cy="246" r="1.6" fill="#fff" opacity="0.53"/><circle cx="731" cy="1000" r="2.0" fill="#fff" opacity="0.85"/><circle cx="548" cy="292" r="2.0" fill="#fff" opacity="0.86"/><circle cx="563" cy="549" r="4.2" fill="#fff" opacity="0.66"/><circle cx="214" cy="48" r="1.6" fill="#fff" opacity="0.86"/><circle cx="275" cy="998" r="1.9" fill="#fff" opacity="0.52"/><circle cx="216" cy="1050" r="4.4" fill="#fff" opacity="0.94"/><circle cx="787" cy="1131" r="5.0" fill="#fff" opacity="0.69"/><circle cx="892" cy="139" r="2.6" fill="#fff" opacity="0.75"/><circle cx="784" cy="1170" r="2.8" fill="#fff" opacity="0.57"/><circle cx="65" cy="1159" r="1.6" fill="#fff" opacity="0.88"/><circle cx="300" cy="999" r="4.5" fill="#fff" opacity="0.91"/><circle cx="483" cy="769" r="2.5" fill="#fff" opacity="0.79"/><circle cx="422" cy="585" r="4.0" fill="#fff" opacity="0.66"/><circle cx="450" cy="530" r="3.7" fill="#fff" opacity="0.90"/><circle cx="567" cy="523" r="2.8" fill="#fff" opacity="0.49"/><circle cx="12" cy="531" r="4.9" fill="#fff" opacity="0.84"/><circle cx="822" cy="876" r="4.3" fill="#fff" opacity="0.72"/><circle cx="891" cy="490" r="3.4" fill="#fff" opacity="0.63"/><circle cx="618" cy="419" r="4.3" fill="#fff" opacity="0.71"/><circle cx="866" cy="452" r="3.6" fill="#fff" opacity="0.55"/><circle cx="181" cy="22" r="2.1" fill="#fff" opacity="0.50"/><circle cx="423" cy="467" r="2.1" fill="#fff" opacity="0.88"/><circle cx="849" cy="969" r="4.2" fill="#fff" opacity="0.87"/><circle cx="331" cy="807" r="2.9" fill="#fff" opacity="0.87"/><circle cx="729" cy="1140" r="2.0" fill="#fff" opacity="0.70"/><circle cx="15" cy="284" r="4.8" fill="#fff" opacity="0.86"/><circle cx="473" cy="863" r="3.3" fill="#fff" opacity="0.53"/><circle cx="661" cy="1055" r="2.3" fill="#fff" opacity="0.85"/><circle cx="895" cy="1064" r="4.4" fill="#fff" opacity="0.44"/><circle cx="530" cy="159" r="3.9" fill="#fff" opacity="0.92"/><circle cx="520" cy="1055" r="1.6" fill="#fff" opacity="0.84"/><circle cx="273" cy="767" r="4.3" fill="#fff" opacity="0.77"/><circle cx="732" cy="326" r="4.2" fill="#fff" opacity="0.79"/><circle cx="91" cy="648" r="3.7" fill="#fff" opacity="0.55"/><circle cx="178" cy="1184" r="3.2" fill="#fff" opacity="0.69"/><circle cx="313" cy="944" r="3.1" fill="#fff" opacity="0.86"/><circle cx="23" cy="423" r="3.2" fill="#fff" opacity="0.47"/><circle cx="75" cy="766" r="4.2" fill="#fff" opacity="0.46"/><circle cx="245" cy="811" r="4.7" fill="#fff" opacity="0.55"/><circle cx="597" cy="17" r="2.8" fill="#fff" opacity="0.78"/><circle cx="587" cy="1010" r="4.7" fill="#fff" opacity="0.50"/><circle cx="218" cy="399" r="3.0" fill="#fff" opacity="0.84"/><circle cx="803" cy="1193" r="1.9" fill="#fff" opacity="0.93"/><circle cx="497" cy="655" r="3.8" fill="#fff" opacity="0.86"/><circle cx="708" cy="652" r="3.9" fill="#fff" opacity="0.65"/><circle cx="639" cy="722" r="4.8" fill="#fff" opacity="0.52"/><circle cx="829" cy="397" r="3.3" fill="#fff" opacity="0.68"/><circle cx="304" cy="117" r="2.4" fill="#fff" opacity="0.53"/><circle cx="680" cy="276" r="4.9" fill="#fff" opacity="0.82"/><circle cx="153" cy="254" r="4.9" fill="#fff" opacity="0.95"/><circle cx="126" cy="801" r="1.9" fill="#fff" opacity="0.87"/><circle cx="448" cy="224" r="5.0" fill="#fff" opacity="0.76"/><circle cx="440" cy="179" r="3.6" fill="#fff" opacity="0.42"/><circle cx="415" cy="303" r="3.8" fill="#fff" opacity="0.66"/><circle cx="625" cy="420" r="3.1" fill="#fff" opacity="0.88"/><circle cx="186" cy="601" r="5.0" fill="#fff" opacity="0.47"/><circle cx="668" cy="466" r="3.0" fill="#fff" opacity="0.67"/><circle cx="819" cy="187" r="2.5" fill="#fff" opacity="0.80"/><circle cx="6" cy="1179" r="2.4" fill="#fff" opacity="0.83"/><circle cx="787" cy="342" r="3.2" fill="#fff" opacity="0.70"/><circle cx="805" cy="1180" r="4.4" fill="#fff" opacity="0.84"/><circle cx="183" cy="1157" r="4.4" fill="#fff" opacity="0.71"/><circle cx="60" cy="384" r="4.5" fill="#fff" opacity="0.45"/><circle cx="662" cy="1111" r="2.9" fill="#fff" opacity="0.50"/><circle cx="818" cy="249" r="2.8" fill="#fff" opacity="0.58"/><circle cx="582" cy="1115" r="3.0" fill="#fff" opacity="0.82"/><circle cx="592" cy="349" r="4.7" fill="#fff" opacity="0.83"/><circle cx="559" cy="541" r="1.9" fill="#fff" opacity="0.46"/><circle cx="173" cy="341" r="3.5" fill="#fff" opacity="0.52"/><circle cx="359" cy="682" r="2.1" fill="#fff" opacity="0.65"/><circle cx="518" cy="167" r="3.6" fill="#fff" opacity="0.43"/><circle cx="416" cy="535" r="2.4" fill="#fff" opacity="0.60"/><circle cx="340" cy="716" r="2.3" fill="#fff" opacity="0.43"/><circle cx="619" cy="259" r="3.7" fill="#fff" opacity="0.69"/><circle cx="668" cy="769" r="2.7" fill="#fff" opacity="0.53"/><circle cx="558" cy="169" r="3.0" fill="#fff" opacity="0.72"/><circle cx="664" cy="265" r="2.1" fill="#fff" opacity="0.67"/><circle cx="853" cy="144" r="3.9" fill="#fff" opacity="0.49"/><circle cx="787" cy="50" r="3.9" fill="#fff" opacity="0.46"/><circle cx="453" cy="381" r="4.6" fill="#fff" opacity="0.41"/><circle cx="263" cy="704" r="2.9" fill="#fff" opacity="0.47"/><circle cx="11" cy="1023" r="4.2" fill="#fff" opacity="0.64"/><circle cx="62" cy="1090" r="4.6" fill="#fff" opacity="0.49"/><circle cx="467" cy="31" r="2.4" fill="#fff" opacity="0.49"/><circle cx="338" cy="167" r="2.3" fill="#fff" opacity="0.75"/><circle cx="538" cy="731" r="1.7" fill="#fff" opacity="0.50"/><circle cx="482" cy="1079" r="2.3" fill="#fff" opacity="0.93"/><circle cx="734" cy="209" r="2.8" fill="#fff" opacity="0.76"/><circle cx="578" cy="1182" r="4.4" fill="#fff" opacity="0.94"/><circle cx="450" cy="534" r="3.5" fill="#fff" opacity="0.70"/><circle cx="366" cy="641" r="4.6" fill="#fff" opacity="0.84"/><rect width="900" height="1200" fill="url(#vig)"/><rect width="900" height="1200" filter="url(#grain)" opacity="0.55"/></svg>
